<svg width="66" height="66" viewBox="0 0 66 66" fill="none" xmlns="http://www.w3.org/2000/svg">
<path d="M13.6641 54.3984H15.5977V27.1992H13.6641C13.0119 27.1992 12.3662 27.2458 11.7305 27.336V19.3359H19.4648V17.4023C19.4648 14.2038 22.0671 11.6016 25.2656 11.6016H40.7344C43.9329 11.6016 46.5352 14.2038 46.5352 17.4023V19.3359H54.2695V27.336C53.6338 27.2458 52.9881 27.1992 52.3359 27.1992H50.4023V54.3984H52.3359C52.9882 54.3984 53.6338 54.3514 54.2695 54.2601V56.332C54.2695 57.3982 53.4021 58.2656 52.3359 58.2656H42.3354C41.5372 56.0151 39.3879 54.3984 36.8672 54.3984H29.1328C25.9343 54.3984 23.332 57.0007 23.332 60.1992C23.332 63.3978 25.9343 66 29.1328 66H36.8672C39.3879 66 41.5372 64.3834 42.3354 62.1328H52.3359C55.5345 62.1328 58.1367 59.5306 58.1367 56.332V53.0933C62.6555 50.9444 66 46.2728 66 40.7344C66 35.2249 62.6504 30.6124 58.1367 28.49V17.4023C58.1367 7.80669 50.33 0 40.7344 0H25.2656C15.67 0 7.86328 7.80669 7.86328 17.4023V28.49C3.33674 30.6185 0 35.2329 0 40.7344C0 48.2436 6.18544 54.3984 13.6641 54.3984ZM36.8672 62.1328H29.1328C28.0666 62.1328 27.1992 61.2654 27.1992 60.1992C27.1992 59.133 28.0666 58.2656 29.1328 58.2656H36.8672C37.9334 58.2656 38.8008 59.133 38.8008 60.1992C38.8008 61.2654 37.9334 62.1328 36.8672 62.1328ZM62.1328 40.7344C62.1328 45.3852 58.6917 49.4041 54.2695 50.3307V31.2555C58.7488 32.1438 62.1328 36.0565 62.1328 40.7344ZM25.2656 3.86719H40.7344C47.5411 3.86719 53.1897 8.91812 54.1308 15.4688H50.2081C49.3097 11.0613 45.4032 7.73438 40.7344 7.73438H25.2656C20.5968 7.73438 16.6903 11.0613 15.7919 15.4688H11.8692C12.8103 8.91812 18.4589 3.86719 25.2656 3.86719ZM11.7305 31.2555V50.3307C7.30834 49.4041 3.86719 45.3852 3.86719 40.7344C3.86719 36.0565 7.25123 32.1438 11.7305 31.2555V31.2555Z" fill="white"/>
</svg>
